<?xml version="1.0" standalone="no"?>
<!DOCTYPE svg PUBLIC "-//W3C//DTD SVG 20010904//EN"
 "http://www.w3.org/TR/2001/REC-SVG-20010904/DTD/svg10.dtd">
<svg version="1.0" xmlns="http://www.w3.org/2000/svg"
 width="256.000000pt" height="256.000000pt" viewBox="0 0 256.000000 256.000000"
 preserveAspectRatio="xMidYMid meet">
<metadata>
Created by potrace 1.11, written by Peter Selinger 2001-2013
</metadata>
<g transform="translate(0.000000,256.000000) scale(0.100000,-0.100000)"
fill="#000000" stroke="none">
<path d="M644 2244 c-5 -2 -42 -8 -81 -14 l-73 -12 0 -794 0 -794 90 0 90 0 0
324 0 324 34 -8 c55 -12 217 -4 282 15 181 52 310 189 342 365 11 57 9 214 -2
263 -40 170 -153 279 -337 321 -54 13 -306 20 -345 10z m322 -179 c64 -18 134
-79 165 -142 19 -41 23 -64 23 -153 0 -92 -3 -112 -25 -160 -33 -70 -79 -116
-149 -149 -48 -22 -68 -25 -165 -26 -60 0 -118 3 -127 7 -17 7 -18 32 -18 318
0 170 3 310 8 311 23 1 97 12 100 13 8 8 145 -6 188 -19z"/>
<path d="M1495 2238 c-27 -4 -65 -10 -82 -13 l-33 -6 0 -794 0 -795 90 0 90 0
0 326 c0 230 3 323 11 319 21 -14 188 -13 259 1 158 30 282 119 345 247 42 89
54 154 51 277 -7 238 -121 381 -346 434 -70 16 -293 18 -385 4z m347 -168
c136 -36 207 -143 205 -307 -2 -225 -141 -345 -382 -331 -45 3 -88 9 -94 12
-8 5 -11 100 -11 316 l0 309 38 6 c20 4 41 8 46 9 23 5 161 -4 198 -14z"/>
<path d="M240 1428 c-212 -111 -240 -128 -240 -147 0 -14 26 -32 93 -66 50
-27 134 -70 185 -97 l92 -48 0 28 c0 26 -11 33 -156 106 l-157 78 154 77 c137
68 154 80 157 104 2 15 0 27 -5 26 -4 -1 -60 -28 -123 -61z"/>
<path d="M2232 1465 c-2 -23 11 -32 152 -102 85 -42 153 -80 151 -84 -3 -3
-71 -39 -153 -79 -139 -69 -149 -76 -150 -102 l-1 -28 162 84 162 83 3 44 3
44 -157 80 c-86 44 -159 81 -163 83 -4 1 -8 -9 -9 -23z"/>
</g>
</svg>
